<?xml version="1.0" encoding="utf-8"?>
<!-- Generator: Adobe Illustrator 26.0.3, SVG Export Plug-In . SVG Version: 6.00 Build 0)  -->
<svg version="1.1" id="Layer_1" xmlns="http://www.w3.org/2000/svg" xmlns:xlink="http://www.w3.org/1999/xlink" x="0px" y="0px"
	 viewBox="0 0 288 74.9" style="enable-background:new 0 0 288 74.9;" xml:space="preserve">
<style type="text/css">
	.st0{fill:#FFFFFF;}
	.st1{fill:#FF0000;stroke:#000000;stroke-miterlimit:10;}
</style>
<g>
	<path d="M16.3,41c-0.7-0.9-1.6-1.9-2.8-2.3c-0.9-0.4-1.6,0.1-1.8-0.2c-0.2-0.3,0.5-0.8,1.2-1.3l6.4-4.6c2.2-1.6,4.4-3.2,6.7-4.9
		c2.1-1.5,3.9-0.6,5.6,1.1c0.2,0.2,0.4,0.4,0.5,0.6c0.8,1.1,1.2,2.5,2,3.7c0.5,0.6,1.2,1.1,1.6,1.7c0.2,0.2,0.1,0.4,0,0.5
		c-0.4,0.3-1.7,0.4-2.1,0.3c-1.9,0-3.6-0.9-5.2-2c-2.9-2.1-6.3-2.2-8.6-0.5c-0.2,0.2-0.9,0.7-1.1,0.9c1.4,0.5,3.5,1.5,5.3,4.1
		c0.7,1,1.3,2.1,2,3c0.1,0.2,1.4-0.8,1.6-0.8c1.1-0.8,1-1.8,0.3-2.8c-0.8-1-1.6-1.4-3-1.8c0,0-0.1-0.1-0.1-0.1
		c-0.2-0.3-0.2-0.8,0.1-0.9c0,0,0.1,0,0.1,0c1.4-0.4,3.4,1.4,4.2,2.6c0.6,0.9,0.6,1.5,1,2c0.6,0.9,1.9,2.1,2.5,3
		c0.6,0.8,1,2.4,0,3.1c-0.2,0.1-0.5,0.3-0.7,0.1c-0.2-0.3-0.2-1-0.5-1.4c-0.8-1.1-3-1.3-4.3-0.5c0.5,1.2,1.1,2.1,1.9,3.2
		c1.5,2.2,4.2,4,6.9,2.6c-1.9-2.6-1.6-5.8-0.6-8.5c0.3-0.8,1-1.6,1.7-2.1c0.7-0.5,1.8-0.6,2.9,0.9c0.7,1,1,2.2,1.7,3.2l0.1,0.2
		c0,0,0.1,0.1,0.1,0.1c0.5,0.4,1.2,0.9,1.9,1.9c0.9,1.2,0.4,2.4-0.8,3.3l-5,3.6c-1.3,1-3,0.7-3.8,0.7c-0.1,1.1-0.6,2.5-1.5,3.2
		c-0.9,0.7-2.1,1.5-3.2,2.3c-0.7,0.5-1.5,1-2.2,1.2c-1.3,0.4-3.2-0.4-4-1.5C18.5,51.1,20.2,46.5,16.3,41z"/>
	<path d="M43.8,42.9c-0.2-0.4-0.5-0.7-0.6-1.1c-1.2-2.6-1.1-5.9-1.5-9.7l-0.2-2.6c-0.1-1.3-0.6-2.7-1.3-4.2
		c-1.6-3.5-2.8-2.4-3.3-3.4c-0.2-0.5,0.6-0.9,1.1-1.1l4.8-2.2c0.5-0.2,1.4,0.2,1.7,0.4c2.1,1.1,3.5,2.9,4.5,5c0.3,0.6,0.6,1.3,0.8,2
		c1.1,3.5,1.5,6.2,2.3,8.1c1,2.2,2.9,3.8,5.5,3.3c-0.3-0.5-0.6-0.8-0.8-1.3c-0.3-0.6-0.5-1.2-0.6-2c-0.4-2.2,0.3-5.7,2.5-7.1
		c0.2-0.1,0.3-0.2,0.4-0.2c1.6-0.7,2.6,0.3,3.2,1.5c0.2,0.5,0.3,1,0.4,1.4c0.1,0.9,0.3,1.9,0.7,2.8c0.3,0.6,0.6,1.1,1.1,1.7
		c0.2,0.2,0.5,0.4,0.6,0.7c0.8,1.7-1,2.9-2.5,3.6l-5.3,2.4c-1.1,0.3-2.4-0.2-2.5-0.2c-0.3,0.1-0.9,1.8-1.7,2.1l-4,1.9
		C46.7,45.7,45,44.5,43.8,42.9z"/>
	<path d="M65.5,15.1c-0.2-1.1-0.8-2.4-1.6-3.2c-0.7-0.8-1.5-0.6-1.6-0.9c-0.1-0.3,0.8-0.6,1.6-0.8l7.7-1.7c2.6-0.6,5.3-1.2,8.1-1.9
		c2.5-0.6,3.8,1,4.8,3.2c0.1,0.2,0.2,0.5,0.2,0.8c0.3,1.4,0.1,2.8,0.4,4.1c0.2,0.8,0.6,1.5,0.8,2.2c0.1,0.2,0,0.4-0.2,0.4
		c-0.5,0.1-1.7-0.4-2.1-0.5c-1.8-0.7-3-2.2-4-3.9c-1.9-3.1-4.9-4.5-7.7-3.9c-0.3,0.1-1.1,0.3-1.4,0.4c1.2,1,2.7,2.8,3.3,5.8
		c0.3,1.2,0.3,2.4,0.6,3.5c0,0.2,1.6-0.1,1.8-0.2c1.3-0.3,1.6-1.3,1.3-2.5c-0.3-1.3-1-1.9-2-2.8c0,0-0.1-0.1-0.1-0.2
		c-0.1-0.4,0.2-0.8,0.4-0.8c0,0,0.1,0,0.1,0c1.4,0.2,2.6,2.6,2.9,4c0.2,1,0,1.6,0.1,2.3c0.2,1,0.9,2.7,1.1,3.7c0.2,1,0,2.6-1.2,2.9
		c-0.2,0-0.6,0.1-0.7-0.2c-0.1-0.4,0.2-1,0.1-1.5c-0.3-1.3-2.3-2.4-3.8-2.1c0,1.3,0.2,2.4,0.5,3.6c0.6,2.6,2.3,5.4,5.3,5.1
		c-0.7-3.2,0.8-6,2.7-8c0.6-0.6,1.5-1.1,2.4-1.3c0.8-0.2,1.9,0.2,2.3,2c0.3,1.2,0.1,2.4,0.3,3.6l0,0.2c0,0,0.1,0.1,0.1,0.1
		c0.3,0.6,0.7,1.3,1,2.5c0.3,1.4-0.6,2.3-2.1,2.7l-6,1.4c-1.6,0.4-3-0.5-3.8-0.9c-0.6,1-1.5,2-2.7,2.3c-1.1,0.2-2.5,0.6-3.9,0.9
		c-0.9,0.2-1.7,0.3-2.5,0.2c-1.4-0.2-2.8-1.6-3.1-3C63.6,25.3,67,21.7,65.5,15.1z"/>
	<path d="M96.7,21.3c0.1-2.4,0.4-4.9,0.5-7.3c0.1-1.9,0-4.2-1.5-5.8c-0.4,2.6-1.2,5.1-1.9,7.8c-0.3,1.2-0.4,2.4-0.4,3.7
		c-0.1,1.8,0,3.6,0.4,5.4c0.3,1.4,1.2,2.7,1.2,4.1c-0.1,1.4-0.7,1.6-2,1.6c-2.6-0.1-2.8-1.6-2.7-4.3c0.2-3.9,1.3-7.6,2.8-11.8
		c0.9-2.6,1.7-4.8,1.8-7.2c0.1-2-2.1-1.9-2-2.4c0.1-0.2,0.3-0.3,1.2-0.3C99.9,5,99.9,5,99.9,5c3.1,0.1,6.3,7.7,6.7,9.7l3.8-3.7
		c0.7-0.7,1.2-1.5,1.3-2.6c0.1-1.2-0.4-1.9-0.8-2.2c-0.2-0.1-0.5-0.2-0.8-0.2l-0.2,0c-0.2,0-0.4-0.1-0.4-0.2c0-0.1,0.2-0.3,0.5-0.3
		c1.1,0,3,0.1,4.5,0.1c1.4,0.1,2.5,0.1,2.8,0.2c2.7,1.3,3.6,7,3.5,9.8c0,0.5-0.1,1.5-0.8,6.2l-0.1,1.7l0.4,5
		c-0.1,2.2-1.1,3.4-3.5,3.3l-4.5-0.2c-3.2-0.1-4.2-2.6-4.1-5.4c0.1-3.1,1.1-6.5,2.6-9.1c1.3-2.3,1.8-4.1,1.9-5.5
		c0-0.7-0.1-1.3-0.2-1.9c-1.4,1.8-3.6,4.6-5,6.9c-1.7,2.3-2,4.8-2.1,7.4c-0.1,1.4,0,2.9-0.1,4.3c-0.1,2.1-0.9,3.1-3.2,3
		c-0.7,0-1.7-0.1-2.3-0.6C97.1,28.7,96.5,24.6,96.7,21.3z"/>
	<path d="M130.3,13.3c0.3-1.1,0.5-2.4,0.1-3.6c-0.2-1-1-1.2-0.9-1.5c0.1-0.3,1-0.1,1.8,0.1l7.6,2.2c2.6,0.7,5.2,1.5,8,2.2
		c2.5,0.7,2.9,2.7,2.7,5.1c0,0.2-0.1,0.5-0.1,0.8c-0.4,1.4-1.2,2.5-1.6,3.8c-0.2,0.8-0.2,1.6-0.4,2.3c-0.1,0.2-0.2,0.3-0.4,0.3
		c-0.5-0.1-1.4-1.1-1.6-1.4c-1.2-1.5-1.6-3.4-1.6-5.3c-0.2-3.6-2.2-6.3-4.9-7.1c-0.3-0.1-1.1-0.3-1.4-0.3c0.5,1.4,1,3.7,0.1,6.7
		c-0.3,1.1-0.8,2.3-1.2,3.4c-0.1,0.2,1.5,0.6,1.6,0.7c1.3,0.4,2-0.4,2.4-1.5c0.4-1.2,0.1-2.2-0.4-3.4c0,0,0-0.1,0-0.2
		c0.1-0.4,0.5-0.6,0.8-0.5c0,0,0.1,0,0.1,0.1c1.1,0.9,1,3.5,0.6,4.9c-0.3,1-0.8,1.4-1,2c-0.3,1-0.5,2.8-0.8,3.8
		c-0.3,0.9-1.3,2.2-2.4,1.9c-0.2-0.1-0.6-0.2-0.5-0.5c0.1-0.4,0.7-0.8,0.8-1.2c0.4-1.3-0.9-3.2-2.3-3.7c-0.6,1.1-0.9,2.2-1.3,3.5
		c-0.7,2.6-0.6,5.8,2.2,7c0.9-3.1,3.5-4.9,6.2-5.7c0.9-0.2,1.9-0.2,2.7,0c0.8,0.2,1.6,1.1,1.1,2.8c-0.3,1.2-1.1,2.2-1.4,3.3
		l-0.1,0.2c0,0,0,0.1,0,0.2c0,0.6,0,1.5-0.3,2.7c-0.4,1.4-1.6,1.8-3.1,1.4l-5.9-1.7c-1.6-0.5-2.4-1.9-2.9-2.6
		c-1,0.6-2.3,1.1-3.4,0.7c-1.1-0.3-2.5-0.7-3.8-1.1c-0.9-0.2-1.7-0.6-2.3-1c-1.1-0.8-1.7-2.8-1.3-4.1
		C123.8,21.4,128.5,19.8,130.3,13.3z"/>
	<path d="M156.9,20.9c-0.1,0-0.2,0-0.2,0.1c-1,1.9-5.2,10.1-6.1,11.9c-0.4,1.2-0.6,2.4-0.7,3.7c-0.1,0.9-0.1,2.3-0.4,3.3
		c-0.3,0.9-1.6,1-2.6,0.6c-1.9-0.7-1.4-2.4-0.8-4c0.9-2.4,2.6-5.7,3.9-7.4c1.5-2.1,4.8-5.8,5.8-8.4c0.6-1.5,0.6-3.1-0.8-4.1
		c-0.3-0.2-0.9-0.3-0.8-0.7c0.1-0.1,0.3-0.1,0.6,0c1.7,0.6,3.4,1.2,5.4,1.9l2.5,0.9c1.7,0.6,2,3.4,2.1,5.1c0.1,3.5-0.3,6.2-0.2,9.7
		c0,0.5,0.1,1.2,0.4,1.7c1.5-3,4.2-4.1,5.4-7.3c0.5-1.4,0.7-3,0.1-4.4c-0.4-1-1-1.5-1-1.7c0.1-0.3,0.3-0.5,0.7-0.3l1.8,0.7
		c0.6,0.2,1.2,0.5,1.8,0.8c0.2,0.1,0,0.4,0,0.5c-0.1,0.4-0.5,0.4-0.9,0.6c-0.5,0.2-0.9,0.8-1.1,1.4c-0.2,1.8-0.6,3.6-1.2,5.3
		c-0.8,2.2-2.4,3.9-3.2,6.2c-0.1,0.2-0.1,0.4-0.2,0.6c-0.4,1.4-0.7,2.6-0.6,4.1c0,0.2,0.2,1.8,0.3,2.1c0.1,0.6,0,1.2-0.3,1.9
		c-0.2,0.6-0.5,1.1-1,1.5c-0.3,0.3-1,0.2-1.4,0.1c-1.3-0.3-2.5-0.7-3.7-1.1c-1.3-0.5-2.6-1-3.8-1.7c-0.6-0.3-1.1-1-1.3-1.6
		c-1.7-3.9-1.4-7.1-0.6-11C155.4,29.7,157.8,23.6,156.9,20.9z"/>
	<path d="M180.4,37.1c1.4-1.6,2.4-3.6,3.1-5.6c0.6-1.6,0.7-4.2-1.3-4.9c-1.4-0.5-2.9,0.7-3.8,1.5c-1.5,1.4-2.5,2.2-2.8,2.5
		c-0.6,0.5-2.3,1.5-3.1,1.2c-0.4-0.1-0.5-0.6-0.2-1.5c0.5-1.4,1.6-2.5,2.4-4.7c0.2-0.6-0.1-1.2,0.1-1.8c0.1-0.3,0.3-0.3,0.6-0.3
		c1.7,0.6,3.4,1.2,5,1.8c3.3,1.2,6.5,2.4,10,3.7l8.1,3c1.5,0.6,1.1,2.7,0.4,4.7c-0.5,1.4-0.9,1.8-1.3,3c-0.4,1-0.3,1.5-0.4,1.7
		c0,0.1-0.1,0.1-0.1,0.1c-2.1-0.8-1.7-4.4-2.1-6c-0.6-2.1-1.8-4.4-4-5.3c0.4,2.1,0.1,4-0.6,6c-0.6,1.6-1.3,3.1-2.2,4.7
		c-0.7,1.2-1.4,2.2-1.9,3.5c-0.6,1.7-0.7,3.6-0.9,5.4c-0.2,1-0.3,1.5-0.5,2c-0.5,1.5-2.4,2.3-3.9,1.8l-5.8-2.1
		c-2.5-0.9-2.6-3.1-1.7-5.3C175.1,42.5,177.9,40,180.4,37.1z"/>
	<path d="M201.2,40.2c0.6-0.9,1.4-1.8,1.8-2.9l0.1-0.5c0.5-2.2-0.4-2.9-0.7-3s-0.7-0.2-0.7-0.2c-0.2-0.1-0.2-0.2-0.1-0.4
		c0-0.1,0.1-0.2,0.4-0.1s1.3,0.3,1.8,0.5l2.9,0.9c4.2,1.3,4.6,2.1,5.1,6.9c0.6,5.6-0.5,10.8,1.7,16.7c0.5,1.4,1.1,2.1,0.6,3.7
		c-0.4,1.2-1.1,1.8-2.6,1.4l-7.4-2.2c-3.4-1-2.8-6.1-2.5-8.4c-0.4-0.2-0.9-0.3-1.2-0.4c-0.8-0.2-1.6-0.4-2.4-0.7
		c-2.2-0.7-4.4-0.9-5.1,1.6c-0.2,0.8-0.4,1.6-0.6,2.5c-0.3,1-0.9,1.7-2,1.4c-2.2-0.7-3.2-1-2.6-3C189.2,48.9,196.5,46.6,201.2,40.2z
		 M198.7,49.6c1.4,0.4,2.7,0.8,3.3,0.9l0.2-0.7c1.1-3.8,1.5-9.4,0.9-10.9c-1.8,3.1-2.3,3.2-7.7,9.7C196,48.8,197.4,49.2,198.7,49.6z
		"/>
	<path d="M220.2,61.3c-0.1-0.4-0.2-0.8-0.2-1.3c-0.3-2.8,0.9-5.9,1.9-9.6l0.6-2.5c0.4-1.3,0.3-2.7,0.2-4.3c-0.3-3.8-1.9-3.2-1.9-4.3
		c-0.1-0.6,0.8-0.7,1.4-0.7l5.3-0.5c0.6,0,1.2,0.7,1.5,1c1.6,1.7,2.3,3.9,2.6,6.2c0.1,0.7,0.1,1.4,0.1,2.2c-0.1,3.7-0.7,6.3-0.5,8.4
		c0.2,2.4,1.5,4.5,4,5c-0.2-0.5-0.3-1-0.3-1.5c-0.1-0.7,0-1.3,0.1-2.1c0.4-2.2,2.2-5.3,4.7-5.8c0.2,0,0.4-0.1,0.5-0.1
		c1.7-0.2,2.4,1.2,2.5,2.5c0.1,0.5,0,1.1-0.1,1.5c-0.2,0.9-0.3,1.9-0.2,2.8c0.1,0.7,0.2,1.3,0.5,1.9c0.1,0.3,0.3,0.5,0.3,0.8
		c0.2,1.8-1.9,2.4-3.5,2.6l-5.8,0.5c-1.2-0.1-2.2-1-2.3-1c-0.3,0-1.5,1.4-2.3,1.4l-4.4,0.4C221.9,64.9,220.7,63.2,220.2,61.3z"/>
	<path d="M248.2,50.6c2-0.7,3.9,0.8,5.2,2.2c1.6,2,3.7,4.6,6.6,3.6c1.5-0.5,2.5-2,1.9-3.7c-0.6-1.8-2.4-2.8-4.2-3.2
		c-7.8-1.6-13.5-1-15.5-6.6c-1.2-3.4,0.7-7.8,4.5-9.1l3.6-1.3c2.6-1,4.6,0.1,7.3,0.6c0.5,0.1,1,0.1,1.4,0.1c0.8-0.1,1.2-0.5,1.5,0.4
		c0.7,1.8-0.6,3.8-2.4,4.4c-1.8,0.7-3.8-0.2-5.2-1.4c-2-1.7-3.1-3.4-5.7-2.5c-1.6,0.6-2.3,1.9-1.8,3.5c0.5,1.4,2.2,1.9,3.5,2.1
		l9.6,1.4c4.7,0.7,6.9,3.1,7.8,5.5c0.5,1.3,0.5,2.6,0.4,3.5c-0.4,2.5-2.5,5-6.5,6.5c-3.4,1.2-7.6,2.6-11,0.5
		c-1.2-0.8-2.1-1.6-2.5-2.9C246.1,52.9,246.7,51.1,248.2,50.6z"/>
</g>
<path class="st0" d="M16.3,39c-0.7-0.9-1.6-1.9-2.8-2.3c-0.9-0.4-1.6,0.1-1.8-0.2c-0.2-0.3,0.5-0.8,1.2-1.3l6.4-4.6
	c2.2-1.5,4.4-3.1,6.7-4.9c2.1-1.5,3.9-0.6,5.6,1.1c0.2,0.2,0.4,0.4,0.5,0.6c0.8,1.1,1.2,2.6,2,3.7c0.5,0.6,1.2,1.1,1.6,1.7
	c0.2,0.2,0.1,0.4,0,0.5c-0.4,0.3-1.7,0.4-2.1,0.3c-1.9,0-3.6-0.9-5.2-2c-2.9-2.1-6.3-2.2-8.6-0.5c-0.2,0.2-0.9,0.7-1.1,0.9
	c1.4,0.5,3.5,1.5,5.3,4.1c0.7,1,1.3,2.1,2,3c0.1,0.2,1.4-0.8,1.6-0.8c1.1-0.8,1-1.8,0.3-2.8c-0.8-1-1.6-1.4-3-1.8
	c0,0-0.1-0.1-0.1-0.1c-0.2-0.3-0.2-0.8,0.1-0.9c0,0,0.1,0,0.1,0c1.4-0.4,3.4,1.4,4.2,2.6c0.6,0.9,0.6,1.5,1,2c0.6,0.9,1.9,2.1,2.5,3
	c0.6,0.8,1,2.4,0,3.1c-0.2,0.1-0.5,0.3-0.7,0.1c-0.2-0.3-0.2-1-0.5-1.4c-0.8-1.1-3-1.3-4.3-0.5c0.5,1.2,1.1,2.1,1.9,3.2
	c1.5,2.2,4.2,4,6.9,2.6c-1.9-2.6-1.6-5.8-0.6-8.5c0.3-0.8,1-1.6,1.7-2.1c0.7-0.5,1.8-0.6,2.9,0.9c0.7,1,1,2.2,1.7,3.2l0.1,0.2
	c0,0,0.1,0.1,0.1,0.1c0.5,0.4,1.2,0.9,1.9,1.9c0.9,1.2,0.4,2.4-0.8,3.3l-5,3.6c-1.3,1-3,0.7-3.8,0.7c-0.1,1.1-0.6,2.5-1.5,3.2
	c-0.9,0.7-2.1,1.5-3.2,2.3c-0.7,0.5-1.5,1-2.2,1.2c-1.3,0.4-3.2-0.4-4-1.5C18.5,49.1,20.2,44.5,16.3,39z"/>
<path class="st0" d="M43.8,40.9c-0.2-0.4-0.5-0.7-0.6-1.1c-1.2-2.6-1.1-5.9-1.5-9.7l-0.2-2.6c-0.1-1.3-0.6-2.7-1.3-4.2
	c-1.6-3.5-2.8-2.4-3.3-3.4c-0.2-0.5,0.6-0.9,1.1-1.1l4.8-2.2c0.5-0.2,1.4,0.2,1.7,0.4c2.1,1.1,3.5,2.9,4.5,5c0.3,0.6,0.6,1.3,0.8,2
	c1.1,3.5,1.5,6.2,2.3,8.1c1,2.2,2.9,3.8,5.5,3.4c-0.3-0.5-0.6-0.8-0.8-1.3c-0.3-0.6-0.5-1.2-0.6-2c-0.4-2.2,0.3-5.7,2.5-7.1
	c0.2-0.1,0.3-0.2,0.4-0.2c1.6-0.7,2.6,0.3,3.2,1.5c0.2,0.5,0.3,1,0.4,1.4c0.1,0.9,0.3,1.9,0.7,2.8c0.3,0.6,0.6,1.1,1.1,1.7
	c0.2,0.2,0.5,0.4,0.6,0.7c0.8,1.7-1,2.9-2.5,3.6l-5.3,2.4c-1.1,0.3-2.4-0.2-2.5-0.2c-0.3,0.1-0.9,1.8-1.7,2.1l-4,1.9
	C46.7,43.7,45,42.5,43.8,40.9z"/>
<path class="st0" d="M65.5,13.1c-0.2-1.1-0.8-2.4-1.6-3.2c-0.7-0.8-1.5-0.6-1.6-0.9c-0.1-0.3,0.8-0.6,1.6-0.8l7.7-1.7
	c2.6-0.6,5.3-1.2,8.1-1.8c2.5-0.6,3.8,1,4.8,3.2c0.1,0.2,0.2,0.5,0.2,0.8c0.3,1.4,0.1,2.8,0.4,4.1c0.2,0.8,0.6,1.5,0.8,2.2
	c0.1,0.2,0,0.4-0.2,0.4c-0.5,0.1-1.7-0.4-2.1-0.5c-1.8-0.7-3-2.2-4-3.9c-1.9-3.1-4.9-4.5-7.7-3.9c-0.3,0.1-1.1,0.3-1.4,0.4
	c1.2,1,2.7,2.8,3.3,5.8c0.3,1.2,0.3,2.4,0.6,3.5c0,0.2,1.6-0.1,1.8-0.2c1.3-0.3,1.6-1.3,1.3-2.5c-0.3-1.3-1-1.9-2-2.8
	c0,0-0.1-0.1-0.1-0.2c-0.1-0.4,0.2-0.8,0.4-0.8c0,0,0.1,0,0.1,0c1.4,0.2,2.6,2.6,2.9,4c0.2,1,0,1.6,0.1,2.3c0.2,1,0.9,2.7,1.1,3.7
	c0.2,1,0,2.6-1.2,2.9c-0.2,0-0.6,0.1-0.7-0.2c-0.1-0.4,0.2-1,0.1-1.5c-0.3-1.3-2.3-2.4-3.8-2.1c0,1.3,0.2,2.4,0.5,3.6
	c0.6,2.6,2.3,5.4,5.3,5.1c-0.7-3.2,0.8-6,2.7-8c0.6-0.6,1.5-1.1,2.4-1.3c0.8-0.2,1.9,0.2,2.3,2c0.3,1.2,0.1,2.4,0.3,3.6l0,0.2
	c0,0,0.1,0.1,0.1,0.1c0.3,0.6,0.7,1.3,1,2.5c0.3,1.4-0.6,2.3-2.1,2.7l-6,1.3c-1.6,0.4-3-0.5-3.8-0.9c-0.6,1-1.5,2-2.7,2.3
	c-1.1,0.2-2.5,0.6-3.9,0.9c-0.9,0.2-1.7,0.3-2.5,0.2c-1.4-0.2-2.8-1.6-3.1-3C63.6,23.3,67,19.7,65.5,13.1z"/>
<path class="st0" d="M96.7,19.3c0.1-2.4,0.4-4.8,0.5-7.3c0.1-1.9,0-4.2-1.5-5.8c-0.4,2.6-1.2,5.1-1.9,7.8c-0.3,1.2-0.4,2.4-0.4,3.7
	c-0.1,1.8,0,3.6,0.4,5.4c0.3,1.4,1.2,2.7,1.2,4.1c-0.1,1.4-0.7,1.6-2,1.6c-2.6-0.1-2.8-1.6-2.7-4.3c0.2-3.9,1.3-7.6,2.8-11.8
	c0.9-2.6,1.7-4.8,1.8-7.2c0.1-2-2.1-1.9-2-2.4c0.1-0.2,0.3-0.3,1.2-0.3C99.9,3,99.9,3,99.9,3c3.1,0.1,6.3,7.7,6.7,9.7l3.8-3.7
	c0.7-0.7,1.2-1.5,1.3-2.6c0.1-1.2-0.4-1.9-0.8-2.2c-0.2-0.2-0.5-0.2-0.8-0.2l-0.2,0c-0.2,0-0.4-0.1-0.4-0.2c0-0.1,0.2-0.3,0.5-0.3
	c1.1,0,3,0.1,4.5,0.1c1.4,0.1,2.5,0.1,2.8,0.2c2.7,1.3,3.6,7,3.5,9.8c0,0.5-0.1,1.5-0.8,6.2l-0.1,1.7l0.4,5
	c-0.1,2.2-1.1,3.4-3.5,3.3l-4.5-0.2c-3.2-0.1-4.2-2.6-4.1-5.4c0.1-3.1,1.1-6.5,2.6-9.1c1.3-2.3,1.8-4.1,1.9-5.6
	c0-0.7-0.1-1.3-0.2-1.9c-1.4,1.8-3.6,4.6-5,6.9c-1.7,2.3-2,4.8-2.1,7.4c-0.1,1.4,0,2.9-0.1,4.3c-0.1,2.1-0.9,3.1-3.2,3
	c-0.7,0-1.7-0.1-2.3-0.6C97.1,26.7,96.5,22.6,96.7,19.3z"/>
<path class="st0" d="M130.3,11.3c0.3-1.1,0.5-2.4,0.1-3.6c-0.2-1-1-1.2-0.9-1.5c0.1-0.3,1-0.1,1.8,0.1l7.6,2.2
	c2.6,0.7,5.2,1.5,8,2.2c2.5,0.7,2.9,2.7,2.7,5.1c0,0.2-0.1,0.5-0.1,0.8c-0.4,1.4-1.2,2.5-1.6,3.8c-0.2,0.8-0.2,1.6-0.4,2.3
	c-0.1,0.2-0.2,0.3-0.4,0.3c-0.5-0.1-1.4-1.1-1.6-1.4c-1.2-1.5-1.6-3.4-1.6-5.3c-0.2-3.6-2.2-6.3-4.9-7.1c-0.3-0.1-1.1-0.3-1.4-0.3
	c0.5,1.4,1,3.7,0.1,6.7c-0.3,1.1-0.8,2.3-1.2,3.4c-0.1,0.2,1.5,0.6,1.6,0.7c1.3,0.4,2-0.4,2.4-1.5c0.4-1.2,0.1-2.2-0.4-3.4
	c0,0,0-0.1,0-0.2c0.1-0.4,0.5-0.6,0.8-0.5c0,0,0.1,0,0.1,0.1c1.1,0.9,1,3.5,0.6,4.9c-0.3,1-0.8,1.4-1,2c-0.3,1-0.5,2.8-0.8,3.8
	c-0.3,0.9-1.3,2.2-2.4,1.9c-0.2-0.1-0.6-0.2-0.5-0.5c0.1-0.4,0.7-0.8,0.8-1.2c0.4-1.3-0.9-3.2-2.3-3.7c-0.6,1.1-0.9,2.2-1.3,3.5
	c-0.7,2.6-0.6,5.8,2.2,7c0.9-3.1,3.5-4.9,6.2-5.7c0.9-0.2,1.9-0.2,2.7,0c0.8,0.2,1.6,1.1,1.1,2.8c-0.3,1.2-1.1,2.2-1.4,3.3l-0.1,0.2
	c0,0,0,0.1,0,0.2c0,0.6,0,1.5-0.3,2.7c-0.4,1.4-1.6,1.8-3.1,1.4l-5.9-1.7c-1.6-0.5-2.4-1.9-2.9-2.6c-1,0.6-2.3,1.1-3.4,0.7
	c-1.1-0.3-2.5-0.7-3.8-1.1c-0.9-0.2-1.7-0.6-2.3-1c-1.1-0.8-1.7-2.8-1.3-4.1C123.8,19.4,128.5,17.8,130.3,11.3z"/>
<path class="st0" d="M156.9,18.9c-0.1,0-0.2,0-0.2,0.1c-1,1.9-5.2,10.1-6.1,11.9c-0.4,1.2-0.6,2.4-0.7,3.7c-0.1,0.9-0.1,2.3-0.4,3.3
	c-0.3,0.9-1.6,1-2.6,0.6c-1.9-0.7-1.4-2.4-0.8-4c0.9-2.4,2.6-5.7,3.9-7.4c1.5-2.1,4.8-5.8,5.8-8.4c0.6-1.5,0.6-3.1-0.8-4.1
	c-0.3-0.2-0.9-0.3-0.8-0.7c0.1-0.1,0.3-0.1,0.6,0c1.7,0.6,3.4,1.2,5.4,1.9l2.5,0.9c1.7,0.6,2,3.4,2.1,5.1c0.1,3.5-0.3,6.2-0.2,9.7
	c0,0.5,0.1,1.2,0.4,1.7c1.5-3,4.2-4.1,5.4-7.3c0.5-1.4,0.7-3,0.1-4.4c-0.4-1-1-1.5-1-1.7c0.1-0.3,0.3-0.5,0.7-0.3l1.8,0.7
	c0.6,0.2,1.2,0.5,1.8,0.8c0.2,0.1,0,0.4,0,0.5c-0.1,0.4-0.5,0.4-0.9,0.6c-0.5,0.2-0.9,0.8-1.1,1.4c-0.2,1.8-0.6,3.6-1.2,5.4
	c-0.8,2.2-2.4,3.9-3.2,6.2c-0.1,0.2-0.1,0.4-0.2,0.6c-0.4,1.4-0.7,2.6-0.6,4.1c0,0.2,0.2,1.8,0.3,2.1c0.1,0.6,0,1.2-0.3,1.9
	c-0.2,0.6-0.5,1.1-1,1.5c-0.3,0.3-1,0.2-1.4,0.1c-1.3-0.3-2.5-0.7-3.7-1.1c-1.3-0.5-2.6-1-3.8-1.7c-0.6-0.3-1.1-1-1.3-1.6
	c-1.7-3.9-1.4-7.1-0.6-11C155.4,27.7,157.8,21.6,156.9,18.9z"/>
<path class="st0" d="M180.4,35.1c1.4-1.6,2.4-3.6,3.1-5.6c0.6-1.6,0.7-4.2-1.3-4.9c-1.4-0.5-2.9,0.7-3.8,1.5
	c-1.5,1.4-2.5,2.2-2.8,2.5c-0.6,0.5-2.3,1.5-3.1,1.2c-0.4-0.1-0.5-0.6-0.2-1.5c0.5-1.4,1.6-2.5,2.4-4.7c0.2-0.6-0.1-1.2,0.1-1.8
	c0.1-0.3,0.3-0.3,0.6-0.3c1.7,0.6,3.4,1.2,5,1.8c3.3,1.2,6.5,2.4,10,3.7l8.1,3c1.5,0.6,1.1,2.7,0.4,4.7c-0.5,1.4-0.9,1.8-1.3,3
	c-0.4,1-0.3,1.5-0.4,1.7c0,0.1-0.1,0.1-0.1,0.1c-2.1-0.8-1.7-4.4-2.1-6c-0.6-2.1-1.8-4.4-4-5.3c0.4,2.1,0.1,4-0.6,6
	c-0.6,1.6-1.3,3.1-2.2,4.7c-0.7,1.2-1.4,2.2-1.9,3.5c-0.6,1.7-0.7,3.6-0.9,5.4c-0.2,1-0.3,1.5-0.5,2c-0.5,1.5-2.4,2.3-3.9,1.8
	l-5.8-2.1c-2.5-0.9-2.6-3.1-1.7-5.3C175.1,40.5,177.9,38,180.4,35.1z"/>
<path class="st0" d="M201.2,38.2c0.6-0.9,1.4-1.8,1.8-2.9l0.1-0.5c0.5-2.2-0.4-2.9-0.7-3s-0.7-0.2-0.7-0.2c-0.2-0.1-0.2-0.2-0.1-0.4
	c0-0.1,0.1-0.2,0.4-0.1s1.3,0.3,1.8,0.5l2.9,0.9c4.2,1.3,4.6,2.1,5.1,6.9c0.6,5.6-0.5,10.8,1.7,16.7c0.5,1.4,1.1,2.1,0.6,3.7
	c-0.4,1.2-1.1,1.8-2.6,1.4l-7.4-2.2c-3.4-1-2.8-6.1-2.5-8.4c-0.4-0.2-0.9-0.3-1.2-0.4c-0.8-0.2-1.6-0.4-2.4-0.7
	c-2.2-0.7-4.4-0.9-5.1,1.6c-0.2,0.8-0.4,1.6-0.6,2.5c-0.3,1-0.9,1.7-2,1.4c-2.2-0.7-3.2-1-2.6-3C189.2,46.9,196.5,44.6,201.2,38.2z
	 M198.7,47.6c1.4,0.4,2.7,0.8,3.3,0.9l0.2-0.7c1.1-3.8,1.5-9.4,0.9-10.9c-1.8,3.1-2.3,3.2-7.7,9.7C196,46.8,197.4,47.2,198.7,47.6z"
	/>
<path class="st0" d="M220.2,59.3c-0.1-0.4-0.2-0.8-0.2-1.3c-0.3-2.8,0.9-5.9,1.9-9.6l0.6-2.5c0.4-1.3,0.3-2.7,0.2-4.3
	c-0.3-3.8-1.9-3.2-1.9-4.3c-0.1-0.6,0.8-0.7,1.4-0.7l5.3-0.5c0.6,0,1.2,0.7,1.5,1c1.6,1.7,2.3,3.9,2.6,6.2c0.1,0.7,0.1,1.4,0.1,2.2
	c-0.1,3.7-0.7,6.3-0.5,8.4c0.2,2.4,1.5,4.5,4,5c-0.2-0.5-0.3-1-0.3-1.5c-0.1-0.7,0-1.3,0.1-2.1c0.4-2.2,2.2-5.3,4.7-5.8
	c0.2,0,0.4-0.1,0.5-0.1c1.7-0.2,2.4,1.2,2.5,2.5c0.1,0.5,0,1.1-0.1,1.5c-0.2,0.9-0.3,1.9-0.2,2.8c0.1,0.7,0.2,1.3,0.5,1.9
	c0.1,0.3,0.3,0.5,0.3,0.8c0.2,1.8-1.9,2.4-3.5,2.6l-5.8,0.5c-1.2-0.1-2.2-1-2.3-1c-0.3,0-1.5,1.4-2.3,1.4l-4.4,0.4
	C221.9,62.9,220.7,61.2,220.2,59.3z"/>
<path class="st0" d="M248.2,48.6c2-0.7,3.9,0.8,5.2,2.2c1.6,2,3.7,4.6,6.6,3.6c1.5-0.5,2.5-2,1.9-3.7c-0.6-1.8-2.4-2.8-4.2-3.2
	c-7.8-1.6-13.5-1-15.5-6.6c-1.2-3.4,0.7-7.8,4.5-9.1l3.6-1.3c2.6-1,4.6,0.1,7.3,0.6c0.5,0.1,1,0.1,1.4,0.1c0.8-0.1,1.2-0.5,1.5,0.4
	c0.7,1.8-0.6,3.8-2.4,4.4c-1.8,0.7-3.8-0.2-5.2-1.4c-2-1.7-3.1-3.4-5.7-2.5c-1.6,0.6-2.3,1.9-1.8,3.5c0.5,1.4,2.2,1.9,3.5,2.1
	l9.6,1.4c4.7,0.7,6.9,3.1,7.8,5.5c0.5,1.3,0.5,2.6,0.4,3.5c-0.4,2.5-2.5,5-6.5,6.5c-3.4,1.2-7.6,2.6-11,0.5
	c-1.2-0.8-2.1-1.6-2.5-2.9C246.1,50.9,246.7,49.1,248.2,48.6z"/>
<g>
	<rect x="51.1" y="34.8" class="st1" width="120.3" height="33.8"/>
	<g>
		<path class="st0" d="M60.5,45.2c0-2.3,1.5-4.2,5-4.2c3.5,0,4.5,1.5,4.5,3c0,0,0,0.1,0,0.2h-2.1v-0.1c0-0.6-0.6-1.4-2.4-1.4
			c-1.8,0-2.7,1.1-2.7,2.5c0,1.3,0.7,2.4,2.7,2.4c1.6,0,2.3-0.9,2.3-1.4v0h-2.5v-1.2h4.8V49h-1.8c0-0.3,0-1,0-1.6h0
			c-0.3,1-1.2,1.7-3.2,1.7C61.8,49.1,60.5,47.2,60.5,45.2z"/>
		<path class="st0" d="M71.3,41.1h5c2.9,0,3.8,0.9,3.8,2.3c0,0.8-0.3,1.6-1.4,1.9v0c1.2,0.3,1.4,1.2,1.4,2V49h-2.3v-1.7
			c0-0.8-0.3-1.2-1.3-1.2h-2.9V49h-2.3V41.1z M76.4,44.8c1.1,0,1.5-0.4,1.5-1c0-0.6-0.4-1-1.8-1h-2.6v2H76.4z"/>
		<path class="st0" d="M81.2,45c0-2.2,1.6-4.1,5.2-4.1s5.2,1.9,5.2,4.1c0,2.2-1.5,4.1-5.2,4.1C82.8,49.1,81.2,47.4,81.2,45z
			 M89.1,45c0-1.3-0.9-2.4-2.8-2.4c-1.9,0-2.8,1.1-2.8,2.4c0,1.4,0.9,2.4,2.8,2.4C88.3,47.4,89.1,46.4,89.1,45z"/>
		<path class="st0" d="M92.6,45.5v-4.4h2.3v4.1c0,1.5,0.9,2.1,2.5,2.1s2.5-0.6,2.5-2.1v-4.1h2.1v4.4c0,2.5-1.8,3.7-4.6,3.7
			C94.4,49.1,92.6,48,92.6,45.5z"/>
		<path class="st0" d="M103.2,41.1h4.7c2.7,0,3.9,0.9,3.9,2.8c0,1.8-1.2,2.7-3.9,2.7h-2.4V49h-2.3V41.1z M107.8,45.2
			c1.2,0,1.8-0.4,1.8-1.2c0-0.8-0.5-1.2-1.8-1.2h-2.4v2.4H107.8z"/>
		<path class="st0" d="M116.3,46.4h2.1c0,0.7,0.5,1.2,2.5,1.2c2.1,0,2.4-0.4,2.4-1c0-0.3-0.2-0.5-0.6-0.6c-0.5-0.1-1.7-0.2-2.6-0.2
			c-1-0.1-2.2-0.2-2.8-0.5c-0.6-0.3-1-0.9-1-1.6c0-1.5,1.4-2.7,4.5-2.7c3.8,0,4.4,1.3,4.4,2.7h-2.1c0-0.7-0.7-1.1-2.3-1.1
			c-1.6,0-2.2,0.3-2.2,0.9c0,0.3,0.2,0.5,0.5,0.6c0.4,0.1,1.6,0.2,2.5,0.2c1.2,0.1,2.1,0.2,2.8,0.4c0.8,0.3,1.2,0.9,1.2,1.7
			c0,1.2-0.7,2.7-4.7,2.7C116.7,49.1,116.3,47.4,116.3,46.4z"/>
		<path class="st0" d="M126.7,41.1h2.3v3h5.1v-3h2.3V49H134v-3.2H129V49h-2.3V41.1z"/>
		<path class="st0" d="M137.5,45c0-2.2,1.6-4.1,5.2-4.1s5.2,1.9,5.2,4.1c0,2.2-1.5,4.1-5.2,4.1C139.1,49.1,137.5,47.4,137.5,45z
			 M145.4,45c0-1.3-0.9-2.4-2.8-2.4c-1.9,0-2.8,1.1-2.8,2.4c0,1.4,0.9,2.4,2.8,2.4C144.6,47.4,145.4,46.4,145.4,45z"/>
		<path class="st0" d="M148,41.1h2.5l2.1,5.4h0l2.1-5.4h2.3l2.1,5.4h0l2-5.4h2.3l-3.2,7.9h-2.5l-2-5.1h0l-2,5.1h-2.5L148,41.1z"/>
		<path class="st0" d="M68.2,61.8h-4.6l-0.8,1.6h-2.4l4.3-7.9h2.7l4.3,7.9H69L68.2,61.8z M67.5,60.5l-1.6-3.2h0l-1.6,3.2H67.5z"/>
		<path class="st0" d="M72.6,55.5h4.7c2.7,0,3.9,0.9,3.9,2.8c0,1.8-1.2,2.7-3.9,2.7h-2.4v2.3h-2.3V55.5z M77.2,59.6
			c1.2,0,1.8-0.4,1.8-1.2c0-0.8-0.5-1.2-1.8-1.2h-2.4v2.4H77.2z"/>
		<path class="st0" d="M82.2,55.5h5c2.9,0,3.8,0.9,3.8,2.3c0,0.8-0.3,1.6-1.4,1.9v0c1.2,0.3,1.4,1.2,1.4,2v1.7h-2.3v-1.7
			c0-0.8-0.3-1.2-1.3-1.2h-2.9v2.8h-2.3V55.5z M87.3,59.2c1.1,0,1.5-0.4,1.5-1c0-0.6-0.4-1-1.8-1h-2.6v2H87.3z"/>
		<path class="st0" d="M92.4,55.5h2.3v7.9h-2.3V55.5z"/>
		<path class="st0" d="M96.1,55.5h2.3v6.1h4.7v1.8h-7V55.5z"/>
		<path class="st0" d="M107.7,55.5h7.5v1.7H110v1.5h4v1.3h-4v1.6h5.3v1.7h-7.6V55.5z"/>
		<path class="st0" d="M116.5,55.5h2.3v7.9h-2.3V55.5z"/>
		<path class="st0" d="M119.9,59.6c0-2.3,1.5-4.2,5-4.2c3.5,0,4.5,1.5,4.5,3c0,0,0,0.1,0,0.2h-2.1v-0.1c0-0.6-0.6-1.4-2.4-1.4
			c-1.8,0-2.7,1.1-2.7,2.5c0,1.3,0.7,2.4,2.7,2.4c1.6,0,2.3-0.9,2.3-1.4v0h-2.5v-1.2h4.8v4.1h-1.8c0-0.3,0-1,0-1.6h0
			c-0.3,1-1.2,1.7-3.2,1.7C121.2,63.5,119.9,61.6,119.9,59.6z"/>
		<path class="st0" d="M130.7,55.5h2.3v3h5.1v-3h2.3v7.9h-2.3v-3.2H133v3.2h-2.3V55.5z"/>
		<path class="st0" d="M144.5,57.2h-3.1v-1.7h8.5v1.7h-3.1v6.2h-2.3V57.2z"/>
		<path class="st0" d="M150.9,55.5h2.3v3h5.1v-3h2.3v7.9h-2.3v-3.2h-5.1v3.2h-2.3V55.5z"/>
	</g>
</g>
<rect x="82.7" y="169.6" style="fill:none;" width="2.3" height="0"/>
</svg>
